<mxfile host="app.diagrams.net" modified="2023-05-29T11:47:54.948Z" agent="Mozilla/5.0 (Macintosh; Intel Mac OS X 10_15_7) AppleWebKit/605.1.15 (KHTML, like Gecko) Version/16.4 Safari/605.1.15" etag="ZDc5SkEl6TiNN-CUgakf" version="21.3.5" type="device">
  <diagram name="Page-1" id="ADVGf8KGBsufHPmuSoAI">
    <mxGraphModel dx="838" dy="779" grid="1" gridSize="10" guides="1" tooltips="1" connect="1" arrows="1" fold="1" page="1" pageScale="1" pageWidth="827" pageHeight="1169" math="0" shadow="0">
      <root>
        <mxCell id="0" />
        <mxCell id="1" parent="0" />
        <mxCell id="dx_MGb-UgQ_JvTBQ2wuK-1" value="" style="rounded=0;whiteSpace=wrap;html=1;fillColor=#f5f5f5;fontColor=#333333;strokeColor=#666666;" vertex="1" parent="1">
          <mxGeometry x="520" y="70" width="190" height="230" as="geometry" />
        </mxCell>
        <mxCell id="dx_MGb-UgQ_JvTBQ2wuK-2" value="LRZ OpenStack Cloud" style="text;html=1;strokeColor=none;fillColor=none;align=center;verticalAlign=middle;whiteSpace=wrap;rounded=0;" vertex="1" parent="1">
          <mxGeometry x="520" y="70" width="130" height="30" as="geometry" />
        </mxCell>
        <mxCell id="dx_MGb-UgQ_JvTBQ2wuK-4" style="edgeStyle=orthogonalEdgeStyle;rounded=0;orthogonalLoop=1;jettySize=auto;html=1;entryX=0;entryY=0.25;entryDx=0;entryDy=0;" edge="1" parent="1" source="dx_MGb-UgQ_JvTBQ2wuK-3" target="dx_MGb-UgQ_JvTBQ2wuK-1">
          <mxGeometry relative="1" as="geometry" />
        </mxCell>
        <mxCell id="dx_MGb-UgQ_JvTBQ2wuK-18" value="Create Resources via &lt;br&gt;Openstack API" style="edgeLabel;html=1;align=center;verticalAlign=middle;resizable=0;points=[];" vertex="1" connectable="0" parent="dx_MGb-UgQ_JvTBQ2wuK-4">
          <mxGeometry x="-0.0588" relative="1" as="geometry">
            <mxPoint as="offset" />
          </mxGeometry>
        </mxCell>
        <mxCell id="dx_MGb-UgQ_JvTBQ2wuK-16" style="edgeStyle=orthogonalEdgeStyle;rounded=0;orthogonalLoop=1;jettySize=auto;html=1;entryX=0.5;entryY=0;entryDx=0;entryDy=0;" edge="1" parent="1" source="dx_MGb-UgQ_JvTBQ2wuK-3" target="dx_MGb-UgQ_JvTBQ2wuK-5">
          <mxGeometry relative="1" as="geometry" />
        </mxCell>
        <mxCell id="dx_MGb-UgQ_JvTBQ2wuK-17" value="Trigger Ansible Playbooks" style="edgeLabel;html=1;align=center;verticalAlign=middle;resizable=0;points=[];" vertex="1" connectable="0" parent="dx_MGb-UgQ_JvTBQ2wuK-16">
          <mxGeometry x="-0.2075" y="-1" relative="1" as="geometry">
            <mxPoint as="offset" />
          </mxGeometry>
        </mxCell>
        <mxCell id="dx_MGb-UgQ_JvTBQ2wuK-3" value="Terraform" style="rounded=0;whiteSpace=wrap;html=1;" vertex="1" parent="1">
          <mxGeometry x="239" y="97" width="120" height="60" as="geometry" />
        </mxCell>
        <mxCell id="dx_MGb-UgQ_JvTBQ2wuK-14" style="edgeStyle=orthogonalEdgeStyle;rounded=0;orthogonalLoop=1;jettySize=auto;html=1;entryX=0.5;entryY=1;entryDx=0;entryDy=0;" edge="1" parent="1" source="dx_MGb-UgQ_JvTBQ2wuK-5" target="dx_MGb-UgQ_JvTBQ2wuK-11">
          <mxGeometry relative="1" as="geometry" />
        </mxCell>
        <mxCell id="dx_MGb-UgQ_JvTBQ2wuK-15" value="Execute Playbooks&lt;br&gt;&amp;nbsp;via ssh on VMs" style="edgeLabel;html=1;align=center;verticalAlign=middle;resizable=0;points=[];" vertex="1" connectable="0" parent="dx_MGb-UgQ_JvTBQ2wuK-14">
          <mxGeometry x="-0.2418" y="-2" relative="1" as="geometry">
            <mxPoint x="-25" y="-2" as="offset" />
          </mxGeometry>
        </mxCell>
        <mxCell id="dx_MGb-UgQ_JvTBQ2wuK-5" value="Ansible" style="rounded=0;whiteSpace=wrap;html=1;" vertex="1" parent="1">
          <mxGeometry x="239" y="210" width="120" height="60" as="geometry" />
        </mxCell>
        <mxCell id="dx_MGb-UgQ_JvTBQ2wuK-13" value="" style="group" vertex="1" connectable="0" parent="1">
          <mxGeometry x="555" y="140" width="120" height="60" as="geometry" />
        </mxCell>
        <mxCell id="dx_MGb-UgQ_JvTBQ2wuK-7" value="" style="rounded=0;whiteSpace=wrap;html=1;" vertex="1" parent="dx_MGb-UgQ_JvTBQ2wuK-13">
          <mxGeometry width="100" height="40" as="geometry" />
        </mxCell>
        <mxCell id="dx_MGb-UgQ_JvTBQ2wuK-9" value="" style="rounded=0;whiteSpace=wrap;html=1;" vertex="1" parent="dx_MGb-UgQ_JvTBQ2wuK-13">
          <mxGeometry x="10" y="10" width="100" height="40" as="geometry" />
        </mxCell>
        <mxCell id="dx_MGb-UgQ_JvTBQ2wuK-11" value="Virtual Machine" style="rounded=0;whiteSpace=wrap;html=1;" vertex="1" parent="dx_MGb-UgQ_JvTBQ2wuK-13">
          <mxGeometry x="20" y="20" width="100" height="40" as="geometry" />
        </mxCell>
        <mxCell id="dx_MGb-UgQ_JvTBQ2wuK-19" value="" style="endArrow=classic;html=1;rounded=0;entryX=0.5;entryY=0;entryDx=0;entryDy=0;" edge="1" parent="1" target="dx_MGb-UgQ_JvTBQ2wuK-3">
          <mxGeometry width="50" height="50" relative="1" as="geometry">
            <mxPoint x="299" y="60" as="sourcePoint" />
            <mxPoint x="440" y="290" as="targetPoint" />
          </mxGeometry>
        </mxCell>
        <mxCell id="dx_MGb-UgQ_JvTBQ2wuK-20" value="Trigger Deployment" style="edgeLabel;html=1;align=center;verticalAlign=middle;resizable=0;points=[];" vertex="1" connectable="0" parent="dx_MGb-UgQ_JvTBQ2wuK-19">
          <mxGeometry x="-0.0172" y="-1" relative="1" as="geometry">
            <mxPoint x="1" y="-18" as="offset" />
          </mxGeometry>
        </mxCell>
        <mxCell id="dx_MGb-UgQ_JvTBQ2wuK-21" value="Clouds.yml" style="shape=note;whiteSpace=wrap;html=1;backgroundOutline=1;darkOpacity=0.05;size=11;" vertex="1" parent="1">
          <mxGeometry x="200" y="80" width="60" height="40" as="geometry" />
        </mxCell>
      </root>
    </mxGraphModel>
  </diagram>
</mxfile>
